<svg width="15" height="14" viewBox="0 0 15 14" fill="none" xmlns="http://www.w3.org/2000/svg">
<path d="M12.2824 3.34672C12.2498 3.24641 12.1863 3.159 12.101 3.09698C12.0156 3.03496 11.9129 3.0015 11.8074 3.0014H10.6699V1.2514C10.6699 0.974841 10.4465 0.751404 10.1699 0.751404H4.16992C3.89336 0.751404 3.66992 0.974841 3.66992 1.2514V3.0014H2.53242C2.42689 3.00126 2.32403 3.03462 2.23867 3.09668C2.15331 3.15874 2.08984 3.24628 2.05742 3.34672L0.919922 6.84515V12.7514C0.919922 13.028 1.14336 13.2514 1.41992 13.2514H12.9199C13.1965 13.2514 13.4199 13.028 13.4199 12.7514V6.84515L12.2824 3.34672ZM4.79492 1.8764H9.54492V3.0014H4.79492V1.8764ZM12.2949 12.1264H2.04492V7.02328L2.98711 4.1264H11.3527L12.2949 7.02328V12.1264ZM9.35742 7.9389H7.66992V6.2514C7.66992 6.18265 7.61367 6.1264 7.54492 6.1264H6.79492C6.72617 6.1264 6.66992 6.18265 6.66992 6.2514V7.9389H4.98242C4.91367 7.9389 4.85742 7.99515 4.85742 8.0639V8.8139C4.85742 8.88266 4.91367 8.9389 4.98242 8.9389H6.66992V10.6264C6.66992 10.6952 6.72617 10.7514 6.79492 10.7514H7.54492C7.61367 10.7514 7.66992 10.6952 7.66992 10.6264V8.9389H9.35742C9.42617 8.9389 9.48242 8.88266 9.48242 8.8139V8.0639C9.48242 7.99515 9.42617 7.9389 9.35742 7.9389Z" fill="#D2D2D2"/>
</svg>
