<svg width="17" height="17" viewBox="0 0 17 17" fill="none" xmlns="http://www.w3.org/2000/svg">
<g clip-path="url(#clip0_134_722)">
<path d="M14.5263 12.4297H13.271C13.1853 12.4297 13.1049 12.4672 13.0513 12.5333C12.9263 12.6851 12.7924 12.8315 12.6513 12.9708C12.0744 13.5484 11.3909 14.0086 10.6388 14.3262C9.85966 14.6553 9.02218 14.8241 8.17635 14.8226C7.32099 14.8226 6.49242 14.6547 5.71385 14.3262C4.96175 14.0086 4.27832 13.5484 3.70135 12.9708C3.12334 12.3952 2.66245 11.713 2.3442 10.9619C2.01385 10.1833 1.84777 9.35653 1.84777 8.50117C1.84777 7.64581 2.01563 6.81903 2.3442 6.04046C2.66206 5.28867 3.1192 4.61188 3.70135 4.03153C4.28349 3.45117 4.96027 2.99403 5.71385 2.67617C6.49242 2.3476 7.32099 2.17974 8.17635 2.17974C9.0317 2.17974 9.86027 2.34581 10.6388 2.67617C11.3924 2.99403 12.0692 3.45117 12.6513 4.03153C12.7924 4.1726 12.9246 4.31903 13.0513 4.46903C13.1049 4.5351 13.1871 4.5726 13.271 4.5726H14.5263C14.6388 4.5726 14.7085 4.4476 14.646 4.35296C13.2763 2.22438 10.8799 0.815455 8.1567 0.822598C3.87813 0.833312 0.447774 4.30653 0.490632 8.57974C0.533489 12.7851 3.95849 16.1797 8.17635 16.1797C10.8924 16.1797 13.2781 14.7726 14.646 12.6494C14.7067 12.5547 14.6388 12.4297 14.5263 12.4297ZM16.1138 8.38867L13.5799 6.38867C13.4853 6.31367 13.3478 6.38153 13.3478 6.50117V7.85831H7.74063C7.66206 7.85831 7.59777 7.9226 7.59777 8.00117V9.00117C7.59777 9.07974 7.66206 9.14403 7.74063 9.14403H13.3478V10.5012C13.3478 10.6208 13.4871 10.6887 13.5799 10.6137L16.1138 8.61367C16.1309 8.60031 16.1447 8.58323 16.1542 8.56374C16.1637 8.54425 16.1687 8.52285 16.1687 8.50117C16.1687 8.47949 16.1637 8.45809 16.1542 8.4386C16.1447 8.41911 16.1309 8.40203 16.1138 8.38867Z" fill="#D2D2D2"/>
</g>
<defs>
<clipPath id="clip0_134_722">
<rect width="16" height="16" fill="white" transform="translate(0.168945 0.5)"/>
</clipPath>
</defs>
</svg>
