<svg width="17" height="17" viewBox="0 0 17 17" fill="none" xmlns="http://www.w3.org/2000/svg">
<path d="M7.31194 1.92859H1.88337C1.72623 1.92859 1.59766 2.05716 1.59766 2.2143V7.64288C1.59766 7.80002 1.72623 7.92859 1.88337 7.92859H7.31194C7.46908 7.92859 7.59766 7.80002 7.59766 7.64288V2.2143C7.59766 2.05716 7.46908 1.92859 7.31194 1.92859ZM6.38337 6.7143H2.81194V3.14287H6.38337V6.7143ZM14.4548 1.92859H9.02623C8.86908 1.92859 8.74051 2.05716 8.74051 2.2143V7.64288C8.74051 7.80002 8.86908 7.92859 9.02623 7.92859H14.4548C14.6119 7.92859 14.7405 7.80002 14.7405 7.64288V2.2143C14.7405 2.05716 14.6119 1.92859 14.4548 1.92859ZM13.5262 6.7143H9.9548V3.14287H13.5262V6.7143ZM7.31194 9.07145H1.88337C1.72623 9.07145 1.59766 9.20002 1.59766 9.35716V14.7857C1.59766 14.9429 1.72623 15.0714 1.88337 15.0714H7.31194C7.46908 15.0714 7.59766 14.9429 7.59766 14.7857V9.35716C7.59766 9.20002 7.46908 9.07145 7.31194 9.07145ZM6.38337 13.8572H2.81194V10.2857H6.38337V13.8572ZM14.4548 9.07145H9.02623C8.86908 9.07145 8.74051 9.20002 8.74051 9.35716V14.7857C8.74051 14.9429 8.86908 15.0714 9.02623 15.0714H14.4548C14.6119 15.0714 14.7405 14.9429 14.7405 14.7857V9.35716C14.7405 9.20002 14.6119 9.07145 14.4548 9.07145ZM13.5262 13.8572H9.9548V10.2857H13.5262V13.8572Z" fill="#FF6B00"/>
</svg>
