<svg width="17" height="17" viewBox="0 0 17 17" fill="none" xmlns="http://www.w3.org/2000/svg">
<path d="M8.70452 2.07336H7.63309C7.53785 2.07336 7.49023 2.12098 7.49023 2.21622V7.82337H2.16922C2.07399 7.82337 2.02637 7.87099 2.02637 7.96622V9.03765C2.02637 9.13289 2.07399 9.18051 2.16922 9.18051H7.49023V14.7877C7.49023 14.8829 7.53785 14.9305 7.63309 14.9305H8.70452C8.79976 14.9305 8.84738 14.8829 8.84738 14.7877V9.18051H14.1692C14.2645 9.18051 14.3121 9.13289 14.3121 9.03765V7.96622C14.3121 7.87099 14.2645 7.82337 14.1692 7.82337H8.84738V2.21622C8.84738 2.12098 8.79976 2.07336 8.70452 2.07336Z" fill="#D2D2D2"/>
</svg>
