<svg width="16" height="16" viewBox="0 0 16 16" fill="none" xmlns="http://www.w3.org/2000/svg">
<g clip-path="url(#clip0_97_4825)">
<path d="M15.8571 7.32167H13.675C13.3661 4.70739 11.2929 2.63417 8.67857 2.32524V0.143101C8.67857 0.0645299 8.61429 0.000244141 8.53571 0.000244141H7.46429C7.38571 0.000244141 7.32143 0.0645299 7.32143 0.143101V2.32524C4.70714 2.63417 2.63393 4.70739 2.325 7.32167H0.142857C0.0642857 7.32167 0 7.38596 0 7.46453V8.53596C0 8.61453 0.0642857 8.67881 0.142857 8.67881H2.325C2.63393 11.2931 4.70714 13.3663 7.32143 13.6752V15.8574C7.32143 15.936 7.38571 16.0002 7.46429 16.0002H8.53571C8.61429 16.0002 8.67857 15.936 8.67857 15.8574V13.6752C11.2929 13.3663 13.3661 11.2931 13.675 8.67881H15.8571C15.9357 8.67881 16 8.61453 16 8.53596V7.46453C16 7.38596 15.9357 7.32167 15.8571 7.32167ZM8 12.3574C5.59286 12.3574 3.64286 10.4074 3.64286 8.00024C3.64286 5.5931 5.59286 3.6431 8 3.6431C10.4071 3.6431 12.3571 5.5931 12.3571 8.00024C12.3571 10.4074 10.4071 12.3574 8 12.3574Z" fill="#FF6B00"/>
<path d="M8.00027 5.85957C7.42706 5.85957 6.89134 6.081 6.48599 6.48815C6.08063 6.8935 5.85741 7.42922 5.85741 8.00243C5.85741 8.57565 6.08063 9.11136 6.48599 9.51672C6.89134 9.92029 7.42884 10.1453 8.00027 10.1453C8.5717 10.1453 9.1092 9.92208 9.51456 9.51672C9.91813 9.11136 10.1431 8.57386 10.1431 8.00243C10.1431 7.431 9.91992 6.8935 9.51456 6.48815C9.31661 6.28796 9.08074 6.12927 8.82073 6.02134C8.56071 5.91341 8.28179 5.85842 8.00027 5.85957Z" fill="#FF6B00"/>
</g>
<defs>
<clipPath id="clip0_97_4825">
<rect width="16" height="16" fill="white"/>
</clipPath>
</defs>
</svg>
