<svg width="15" height="15" viewBox="0 0 15 15" fill="none" xmlns="http://www.w3.org/2000/svg">
<path d="M7.58724 6.82292C7.20047 6.82292 6.82953 6.66927 6.55604 6.39578C6.28255 6.12229 6.12891 5.75136 6.12891 5.36458C6.12891 4.97781 6.28255 4.60688 6.55604 4.33339C6.82953 4.0599 7.20047 3.90625 7.58724 3.90625C7.97401 3.90625 8.34495 4.0599 8.61844 4.33339C8.89193 4.60688 9.04557 4.97781 9.04557 5.36458C9.04557 5.55609 9.00785 5.74573 8.93456 5.92266C8.86128 6.0996 8.75386 6.26036 8.61844 6.39578C8.48302 6.5312 8.32225 6.63862 8.14532 6.71191C7.96839 6.7852 7.77875 6.82292 7.58724 6.82292ZM7.58724 1.28125C6.50427 1.28125 5.46566 1.71146 4.69989 2.47723C3.93411 3.243 3.50391 4.28162 3.50391 5.36458C3.50391 8.42708 7.58724 12.9479 7.58724 12.9479C7.58724 12.9479 11.6706 8.42708 11.6706 5.36458C11.6706 4.28162 11.2404 3.243 10.4746 2.47723C9.70882 1.71146 8.67021 1.28125 7.58724 1.28125Z" fill="#FF8A00"/>
</svg>
