<svg width="85" height="32" viewBox="0 0 85 32" fill="none" xmlns="http://www.w3.org/2000/svg">
<path d="M1.08867 25.002V23.3155H0.747938V22.8944H1.08867V22.6972C1.08867 22.5569 1.11355 22.4401 1.16332 22.3469C1.21309 22.2538 1.29094 22.1842 1.39686 22.1383C1.50406 22.0911 1.64252 22.0675 1.81224 22.0675C1.86967 22.0675 1.92136 22.0694 1.9673 22.0732C2.01451 22.077 2.05854 22.0821 2.09938 22.0885V22.4618C2.08151 22.458 2.0579 22.4554 2.02855 22.4541C2.00048 22.4516 1.96857 22.4503 1.93284 22.4503C1.82437 22.4503 1.7478 22.4752 1.70313 22.525C1.65847 22.5734 1.63614 22.6436 1.63614 22.7355V22.8944H2.08215V23.3155H1.64762V25.002H1.08867ZM3.23275 25.046C3.01708 25.046 2.8314 25.0026 2.67571 24.9158C2.52002 24.8278 2.4007 24.7021 2.31775 24.5387C2.2348 24.3741 2.19333 24.1776 2.19333 23.9491V23.9453C2.19333 23.7181 2.23544 23.5229 2.31967 23.3596C2.40389 23.1962 2.52321 23.0705 2.67763 22.9825C2.83332 22.8931 3.01836 22.8485 3.23275 22.8485C3.44714 22.8485 3.63155 22.8925 3.78596 22.9805C3.94165 23.0686 4.06161 23.1949 4.14583 23.3596C4.23006 23.5229 4.27217 23.7181 4.27217 23.9453V23.9491C4.27217 24.1776 4.2307 24.3741 4.14775 24.5387C4.0648 24.7021 3.94548 24.8278 3.78979 24.9158C3.63537 25.0026 3.44969 25.046 3.23275 25.046ZM3.23275 24.6076C3.33229 24.6076 3.41651 24.5815 3.48543 24.5291C3.55434 24.4768 3.6073 24.4015 3.64431 24.3033C3.68132 24.205 3.69982 24.087 3.69982 23.9491V23.9453C3.69982 23.8075 3.68132 23.6901 3.64431 23.5931C3.6073 23.4948 3.5537 23.4195 3.48351 23.3672C3.4146 23.3136 3.33101 23.2868 3.23275 23.2868C3.13449 23.2868 3.05026 23.3136 2.98007 23.3672C2.91116 23.4195 2.8582 23.4948 2.82119 23.5931C2.78418 23.6901 2.76568 23.8075 2.76568 23.9453V23.9491C2.76568 24.0882 2.78355 24.2069 2.81928 24.3052C2.85629 24.4034 2.90925 24.4787 2.97816 24.5311C3.04835 24.5821 3.13321 24.6076 3.23275 24.6076ZM4.57094 25.002V22.8944H5.1299V23.2217H5.16435C5.19881 23.1069 5.26198 23.0182 5.35386 22.9557C5.44574 22.8918 5.55996 22.8599 5.69651 22.8599C5.73479 22.8599 5.7718 22.8625 5.80753 22.8676C5.84454 22.8727 5.87708 22.8791 5.90516 22.8867V23.3749C5.86304 23.3647 5.82029 23.357 5.7769 23.3519C5.73479 23.3455 5.69204 23.3423 5.64865 23.3423C5.54273 23.3423 5.45085 23.3621 5.373 23.4017C5.29516 23.4399 5.23518 23.4948 5.19307 23.5663C5.15095 23.6378 5.1299 23.7233 5.1299 23.8228V25.002H4.57094ZM7.03102 25.002V22.2397H8.86102V22.7164H7.60912V23.3825H8.79019V23.8266H7.60912V24.5253H8.86102V25.002H7.03102ZM9.31293 25.002V22.2397H9.97525L10.739 24.2611H10.7735L11.5353 22.2397H12.1977V25.002H11.6827V23.1222H11.3975L11.9488 22.3163L10.9362 25.002H10.5744L9.56369 22.3163L10.1131 23.1222H9.82785V25.002H9.31293ZM13.3827 25.002V22.7164H12.5539V22.2397H14.7897V22.7164H13.9608V25.002H13.3827Z" fill="#FF8C39"/>
<path fill-rule="evenodd" clip-rule="evenodd" d="M11.1908 20.604V9.51375H13.796V20.604H11.1908ZM12.4881 7.92345C12.0836 7.92345 11.7418 7.78395 11.4628 7.50495C11.1838 7.22595 11.0443 6.89114 11.0443 6.50054C11.0443 6.10297 11.1838 5.76816 11.4628 5.49614C11.7418 5.21714 12.0836 5.07764 12.4881 5.07764C12.8997 5.07764 13.2449 5.21714 13.5239 5.49614C13.8029 5.76816 13.9424 6.10297 13.9424 6.50054C13.9424 6.89114 13.8029 7.22595 13.5239 7.50495C13.2449 7.78395 12.8997 7.92345 12.4881 7.92345ZM0.646484 20.604V5.5066H3.34582V18.3337H10.1883V20.604H0.646484ZM16.3074 11.5226V20.604H18.9126V11.5226H21.0888V9.51375H18.8603V8.53028C18.8603 8.0769 18.9788 7.73512 19.216 7.50495C19.4601 7.27477 19.8368 7.15968 20.3459 7.15968C20.4854 7.15968 20.6214 7.16666 20.754 7.18061C20.8935 7.18758 21.019 7.19805 21.1306 7.212V5.39151C20.9702 5.36361 20.7609 5.3392 20.5029 5.31828C20.2518 5.29735 19.9972 5.28689 19.7391 5.28689C18.937 5.28689 18.2848 5.40198 17.7826 5.63215C17.2804 5.85535 16.9072 6.20062 16.6631 6.66794C16.426 7.13527 16.3074 7.73164 16.3074 8.45704V9.51375H14.7903V11.5226H16.3074ZM26.3728 20.8238C25.2637 20.8238 24.3082 20.5901 23.506 20.1228C22.7109 19.6554 22.1006 18.9928 21.6751 18.1349C21.2496 17.277 21.0369 16.2621 21.0369 15.0903V15.0798C21.0369 13.915 21.2496 12.9001 21.6751 12.0352C22.1075 11.1633 22.7109 10.4868 23.4851 10.0055C24.2663 9.52422 25.187 9.28358 26.2472 9.28358C27.3005 9.28358 28.2107 9.51724 28.9779 9.98457C29.7522 10.4449 30.3451 11.0936 30.7566 11.9306C31.1751 12.7676 31.3843 13.7441 31.3843 14.8601V15.6971H23.6222C23.6343 16.3245 23.7455 16.8651 23.9559 17.3188C24.1861 17.7931 24.5104 18.1593 24.9289 18.4174C25.3474 18.6685 25.8462 18.794 26.4251 18.794C26.8575 18.794 27.2377 18.7278 27.5655 18.5952C27.8933 18.4557 28.1619 18.2779 28.3711 18.0617C28.5873 17.8454 28.7373 17.6118 28.821 17.3607L28.8419 17.2874H31.2692L31.2483 17.4025C31.1576 17.828 30.9902 18.2465 30.7461 18.658C30.502 19.0626 30.1742 19.4288 29.7626 19.7566C29.3511 20.0844 28.8629 20.346 28.2979 20.5413C27.7329 20.7296 27.0912 20.8238 26.3728 20.8238ZM23.9559 12.799C23.8018 13.1362 23.7009 13.5233 23.6532 13.9603H28.8539C28.8072 13.5027 28.7055 13.1051 28.549 12.7676C28.3258 12.2863 28.0189 11.9271 27.6283 11.69C27.2377 11.4458 26.7878 11.3238 26.2786 11.3238C25.7625 11.3238 25.3021 11.4493 24.8976 11.7004C24.5 11.9446 24.1861 12.3107 23.9559 12.799ZM45.5049 24.245C45.749 24.2729 45.9966 24.2869 46.2477 24.2869C47.015 24.2869 47.6776 24.1788 48.2356 23.9625C48.8006 23.7533 49.2819 23.4045 49.6795 22.9163C50.077 22.435 50.4153 21.7898 50.6943 20.9807L54.691 9.51375H51.9498L49.3473 18.386H49.2688L46.6662 9.51375H43.8309L47.8171 20.6145L47.6602 21.0644C47.4928 21.5317 47.2626 21.8491 46.9697 22.0165C46.6767 22.1909 46.2791 22.2781 45.7769 22.2781C45.5886 22.2781 45.4212 22.2676 45.2747 22.2467L44.9085 22.1944V24.1718C45.069 24.1997 45.2677 24.2241 45.5049 24.245ZM55.139 20.604V9.51375H57.7337V11.2505H57.7964C58.0824 10.6507 58.5079 10.1729 59.0729 9.81717C59.6448 9.46144 60.3493 9.28358 61.1863 9.28358C62.4069 9.28358 63.3486 9.65325 64.0112 10.3926C64.6808 11.132 65.0156 12.1433 65.0156 13.4267V20.604H62.4104V13.9499C62.4104 13.1617 62.2256 12.5549 61.8559 12.1294C61.4862 11.6969 60.9317 11.4807 60.1924 11.4807C59.6971 11.4807 59.2647 11.5958 58.895 11.826C58.5253 12.0492 58.2394 12.3631 58.0371 12.7676C57.8348 13.1652 57.7337 13.6325 57.7337 14.1696V20.604H55.139ZM68.0768 20.1228C68.879 20.5901 69.8276 20.8238 70.9227 20.8238C71.8573 20.8238 72.6769 20.6459 73.3813 20.2902C74.0858 19.9275 74.6473 19.4392 75.0658 18.8254C75.4843 18.2116 75.7284 17.5211 75.7982 16.7538L75.8087 16.3539H73.35L73.329 16.7748C73.2105 17.3537 72.9454 17.8245 72.5339 18.1872C72.1293 18.5429 71.5957 18.7208 70.9331 18.7208C70.3891 18.7208 69.9113 18.5778 69.4997 18.2918C69.0952 17.9989 68.7778 17.5804 68.5477 17.0363C68.3244 16.4923 68.2129 15.8366 68.2129 15.0694V15.0589C68.2129 14.2986 68.3244 13.6465 68.5477 13.1024C68.7709 12.5584 69.0847 12.1399 69.4893 11.8469C69.9008 11.547 70.3786 11.397 70.9227 11.397C71.6132 11.397 72.1572 11.5888 72.5548 11.9725C72.9594 12.3491 73.2139 12.806 73.3186 13.343L73.3395 13.7534H75.7877V13.3535C75.7319 12.6142 75.5018 11.9376 75.0972 11.3238C74.6926 10.71 74.1347 10.2182 73.4232 9.84856C72.7117 9.4719 71.8678 9.28358 70.8913 9.28358C69.8171 9.28358 68.879 9.51724 68.0768 9.98457C67.2817 10.4519 66.6644 11.118 66.225 11.9829C65.7855 12.8408 65.5658 13.8592 65.5658 15.038V15.0484C65.5658 16.2342 65.7821 17.2595 66.2145 18.1244C66.6539 18.9893 67.2747 19.6554 68.0768 20.1228ZM35.0117 20.3677C35.835 20.6996 36.7977 20.8656 37.8998 20.8656C39.0683 20.8656 40.0708 20.6864 40.9073 20.3279C41.7505 19.9693 42.3945 19.4614 42.8393 18.8042C43.2908 18.1469 43.5165 17.3734 43.5165 16.4838V16.4738C43.5165 15.7302 43.3638 15.0929 43.0584 14.5617C42.7596 14.0306 42.2949 13.5891 41.6642 13.2372C41.0335 12.8853 40.2168 12.6065 39.2143 12.4007L37.6707 12.082C36.8076 11.9027 36.1703 11.6571 35.7586 11.345C35.3536 11.0264 35.1511 10.6147 35.1511 10.1102V10.1002C35.1511 9.71512 35.2607 9.37652 35.4798 9.0844C35.7055 8.79228 36.0209 8.56654 36.4259 8.4072C36.8375 8.24122 37.3222 8.15823 37.8798 8.15823C38.4176 8.15823 38.8923 8.2379 39.304 8.39724C39.7156 8.55659 40.0475 8.78564 40.2998 9.0844C40.5521 9.37652 40.7081 9.73172 40.7679 10.15L40.7878 10.2795H43.2377L43.2277 10.1102C43.1812 9.29353 42.9323 8.5765 42.4808 7.95906C42.036 7.34161 41.4218 6.86027 40.6384 6.51504C39.855 6.1698 38.9421 5.99718 37.8998 5.99718C36.8707 5.99718 35.9545 6.17644 35.1511 6.53495C34.3478 6.88683 33.7171 7.38145 33.259 8.01881C32.8075 8.64953 32.5785 9.3898 32.5718 10.2396V10.2496C32.5718 11.3185 32.9237 12.1882 33.6275 12.8588C34.3312 13.5227 35.3868 14.0007 36.7943 14.2928L38.338 14.6115C39.2674 14.8107 39.9314 15.0663 40.3297 15.3783C40.7347 15.6904 40.9372 16.1153 40.9372 16.6531V16.663C40.9372 17.0747 40.8177 17.4365 40.5787 17.7485C40.3397 18.0539 39.9977 18.2896 39.5529 18.4556C39.1147 18.6216 38.5936 18.7046 37.9894 18.7046C37.3919 18.7046 36.8574 18.6249 36.386 18.4656C35.9213 18.2996 35.5462 18.0672 35.2607 17.7684C34.9752 17.4697 34.7959 17.1145 34.7229 16.7029L34.703 16.5834H32.2531L32.2631 16.7327C32.3229 17.5892 32.5884 18.3261 33.0598 18.9436C33.5378 19.561 34.1885 20.0357 35.0117 20.3677ZM78.9307 16.3423H75.8087V13.7486H78.9307V10.6265H81.5244V13.7486H84.6465V16.3423H81.5244V19.4643L78.9307 19.4643V16.3423Z" fill="#FF6B00"/>
</svg>
