<svg width="16" height="16" viewBox="0 0 16 16" fill="none" xmlns="http://www.w3.org/2000/svg">
<g opacity="0.3">
<path d="M12.7041 8.51619C12.6065 8.40507 12.5526 8.26222 12.5526 8.11431C12.5526 7.9664 12.6065 7.82355 12.7041 7.71243L13.4835 6.83561C13.5694 6.73981 13.6227 6.61927 13.6358 6.49128C13.6489 6.36329 13.6212 6.23443 13.5565 6.12319L12.3387 4.01637C12.2747 3.90526 12.1773 3.81718 12.0603 3.7647C11.9433 3.71222 11.8127 3.69801 11.6872 3.72409L10.5425 3.95548C10.3968 3.98557 10.2451 3.96132 10.1161 3.88728C9.98714 3.81324 9.8897 3.69455 9.84221 3.5536L9.47077 2.4393C9.42992 2.31836 9.3521 2.21331 9.2483 2.13901C9.14449 2.06471 9.01997 2.02491 8.89231 2.02524H6.45668C6.3239 2.01831 6.1925 2.05503 6.08255 2.1298C5.9726 2.20457 5.89014 2.31327 5.84778 2.4393L5.50679 3.5536C5.45929 3.69455 5.36185 3.81324 5.23285 3.88728C5.10385 3.96132 4.95221 3.98557 4.80655 3.95548L3.63135 3.72409C3.51234 3.70728 3.39102 3.72606 3.28266 3.77807C3.17431 3.83008 3.08377 3.91299 3.02245 4.01637L1.80463 6.12319C1.73836 6.23319 1.70856 6.36132 1.7195 6.48928C1.73043 6.61723 1.78155 6.73845 1.86552 6.83561L2.63884 7.71243C2.73646 7.82355 2.79029 7.9664 2.79029 8.11431C2.79029 8.26222 2.73646 8.40507 2.63884 8.51619L1.86552 9.39302C1.78155 9.49017 1.73043 9.61139 1.7195 9.73935C1.70856 9.8673 1.73836 9.99544 1.80463 10.1054L3.02245 12.2123C3.08644 12.3234 3.18388 12.4114 3.30087 12.4639C3.41786 12.5164 3.54844 12.5306 3.67398 12.5045L4.81872 12.2731C4.96438 12.2431 5.11602 12.2673 5.24503 12.3413C5.37403 12.4154 5.47147 12.5341 5.51897 12.675L5.8904 13.7893C5.93277 13.9154 6.01522 14.0241 6.12517 14.0988C6.23512 14.1736 6.36653 14.2103 6.49931 14.2034H8.93494C9.06259 14.2037 9.18712 14.1639 9.29092 14.0896C9.39472 14.0153 9.47255 13.9103 9.5134 13.7893L9.88483 12.675C9.93233 12.5341 10.0298 12.4154 10.1588 12.3413C10.2878 12.2673 10.4394 12.2431 10.5851 12.2731L11.7298 12.5045C11.8554 12.5306 11.9859 12.5164 12.1029 12.4639C12.2199 12.4114 12.3174 12.3234 12.3814 12.2123L13.5992 10.1054C13.6638 9.9942 13.6916 9.86534 13.6784 9.73735C13.6653 9.60936 13.612 9.48882 13.5261 9.39302L12.7041 8.51619ZM11.7968 9.33213L12.2839 9.88014L11.5045 11.2319L10.786 11.0858C10.3475 10.9961 9.89127 11.0706 9.50402 11.2951C9.11677 11.5196 8.82542 11.8785 8.68528 12.3036L8.4539 12.9856H6.8951L6.67589 12.2914C6.53575 11.8663 6.24441 11.5074 5.85716 11.2829C5.46991 11.0585 5.01371 10.984 4.57516 11.0736L3.85665 11.2197L3.06507 9.87405L3.5522 9.32604C3.85175 8.99113 4.01736 8.55756 4.01736 8.10822C4.01736 7.65889 3.85175 7.22532 3.5522 6.89041L3.06507 6.34239L3.84447 5.0028L4.56298 5.14894C5.00153 5.23858 5.45773 5.16409 5.84498 4.93959C6.23223 4.7151 6.52357 4.35624 6.66371 3.93112L6.8951 3.24306H8.4539L8.68528 3.93721C8.82542 4.36232 9.11677 4.72119 9.50402 4.94568C9.89127 5.17017 10.3475 5.24467 10.786 5.15502L11.5045 5.00889L12.2839 6.36066L11.7968 6.90868C11.5006 7.24282 11.3371 7.67388 11.3371 8.1204C11.3371 8.56692 11.5006 8.99798 11.7968 9.33213ZM7.6745 5.67868C7.19278 5.67868 6.72187 5.82153 6.32133 6.08916C5.9208 6.35679 5.60862 6.73719 5.42427 7.18224C5.23992 7.62729 5.19169 8.11701 5.28567 8.58948C5.37965 9.06195 5.61162 9.49593 5.95225 9.83656C6.29288 10.1772 6.72686 10.4092 7.19933 10.5031C7.6718 10.5971 8.16152 10.5489 8.60657 10.3645C9.05163 10.1802 9.43202 9.86801 9.69965 9.46747C9.96728 9.06694 10.1101 8.59603 10.1101 8.11431C10.1101 7.46834 9.85352 6.84883 9.39675 6.39206C8.93998 5.93529 8.32047 5.67868 7.6745 5.67868ZM7.6745 9.33213C7.43364 9.33213 7.19818 9.2607 6.99792 9.12689C6.79765 8.99307 6.64156 8.80288 6.54938 8.58035C6.45721 8.35782 6.43309 8.11296 6.48008 7.87673C6.52707 7.6405 6.64306 7.4235 6.81337 7.25319C6.98369 7.08287 7.20068 6.96689 7.43691 6.9199C7.67315 6.87291 7.91801 6.89703 8.14054 6.9892C8.36306 7.08137 8.55326 7.23746 8.68707 7.43773C8.82089 7.638 8.89231 7.87345 8.89231 8.11431C8.89231 8.4373 8.76401 8.74705 8.53562 8.97544C8.30724 9.20382 7.99748 9.33213 7.6745 9.33213Z" fill="black"/>
</g>
</svg>
