<svg width="17" height="17" viewBox="0 0 17 17" fill="none" xmlns="http://www.w3.org/2000/svg">
<path d="M14.5 3.50024H5.375C5.30625 3.50024 5.25 3.55649 5.25 3.62524V4.50024C5.25 4.56899 5.30625 4.62524 5.375 4.62524H14.5C14.5687 4.62524 14.625 4.56899 14.625 4.50024V3.62524C14.625 3.55649 14.5687 3.50024 14.5 3.50024ZM14.5 7.93775H5.375C5.30625 7.93775 5.25 7.994 5.25 8.06275V8.93775C5.25 9.0065 5.30625 9.06275 5.375 9.06275H14.5C14.5687 9.06275 14.625 9.0065 14.625 8.93775V8.06275C14.625 7.994 14.5687 7.93775 14.5 7.93775ZM14.5 12.3752H5.375C5.30625 12.3752 5.25 12.4315 5.25 12.5002V13.3752C5.25 13.444 5.30625 13.5002 5.375 13.5002H14.5C14.5687 13.5002 14.625 13.444 14.625 13.3752V12.5002C14.625 12.4315 14.5687 12.3752 14.5 12.3752ZM1.875 4.06274C1.875 4.17765 1.89763 4.29143 1.94161 4.39759C1.98558 4.50375 2.05003 4.60021 2.13128 4.68146C2.21253 4.76271 2.30899 4.82717 2.41515 4.87114C2.52131 4.91511 2.63509 4.93774 2.75 4.93774C2.86491 4.93774 2.97869 4.91511 3.08485 4.87114C3.19101 4.82717 3.28747 4.76271 3.36872 4.68146C3.44997 4.60021 3.51442 4.50375 3.55839 4.39759C3.60237 4.29143 3.625 4.17765 3.625 4.06274C3.625 3.94784 3.60237 3.83406 3.55839 3.7279C3.51442 3.62174 3.44997 3.52528 3.36872 3.44403C3.28747 3.36277 3.19101 3.29832 3.08485 3.25435C2.97869 3.21038 2.86491 3.18774 2.75 3.18774C2.63509 3.18774 2.52131 3.21038 2.41515 3.25435C2.30899 3.29832 2.21253 3.36277 2.13128 3.44403C2.05003 3.52528 1.98558 3.62174 1.94161 3.7279C1.89763 3.83406 1.875 3.94784 1.875 4.06274ZM1.875 8.50025C1.875 8.61515 1.89763 8.72893 1.94161 8.83509C1.98558 8.94125 2.05003 9.03771 2.13128 9.11896C2.21253 9.20021 2.30899 9.26467 2.41515 9.30864C2.52131 9.35261 2.63509 9.37525 2.75 9.37525C2.86491 9.37525 2.97869 9.35261 3.08485 9.30864C3.19101 9.26467 3.28747 9.20021 3.36872 9.11896C3.44997 9.03771 3.51442 8.94125 3.55839 8.83509C3.60237 8.72893 3.625 8.61515 3.625 8.50025C3.625 8.38534 3.60237 8.27156 3.55839 8.1654C3.51442 8.05924 3.44997 7.96278 3.36872 7.88153C3.28747 7.80028 3.19101 7.73582 3.08485 7.69185C2.97869 7.64788 2.86491 7.62525 2.75 7.62525C2.63509 7.62525 2.52131 7.64788 2.41515 7.69185C2.30899 7.73582 2.21253 7.80028 2.13128 7.88153C2.05003 7.96278 1.98558 8.05924 1.94161 8.1654C1.89763 8.27156 1.875 8.38534 1.875 8.50025ZM1.875 12.9377C1.875 13.0527 1.89763 13.1664 1.94161 13.2726C1.98558 13.3788 2.05003 13.4752 2.13128 13.5565C2.21253 13.6377 2.30899 13.7022 2.41515 13.7461C2.52131 13.7901 2.63509 13.8127 2.75 13.8127C2.86491 13.8127 2.97869 13.7901 3.08485 13.7461C3.19101 13.7022 3.28747 13.6377 3.36872 13.5565C3.44997 13.4752 3.51442 13.3788 3.55839 13.2726C3.60237 13.1664 3.625 13.0527 3.625 12.9377C3.625 12.8228 3.60237 12.7091 3.55839 12.6029C3.51442 12.4967 3.44997 12.4003 3.36872 12.319C3.28747 12.2378 3.19101 12.1733 3.08485 12.1294C2.97869 12.0854 2.86491 12.0627 2.75 12.0627C2.63509 12.0627 2.52131 12.0854 2.41515 12.1294C2.30899 12.1733 2.21253 12.2378 2.13128 12.319C2.05003 12.4003 1.98558 12.4967 1.94161 12.6029C1.89763 12.7091 1.875 12.8228 1.875 12.9377Z" fill="#FF6B00"/>
</svg>
