<svg width="17" height="17" viewBox="0 0 17 17" fill="none" xmlns="http://www.w3.org/2000/svg">
<g clip-path="url(#clip0_247_9767)">
<path d="M14.3681 4.51966C14.0319 3.74445 13.5472 3.04255 12.9413 2.45359C12.3335 1.8593 11.6169 1.38762 10.8306 1.0643C10.0128 0.725017 9.14492 0.553589 8.25028 0.553589C7.35564 0.553589 6.48778 0.725017 5.66992 1.06252C4.87885 1.3893 4.16992 1.85716 3.55921 2.4518C2.95371 3.0411 2.46906 3.74291 2.13242 4.51787C1.78421 5.32145 1.60742 6.17502 1.60742 7.05359C1.60742 8.3143 1.90921 9.56966 2.50206 10.7804C2.97885 11.7536 3.64492 12.7018 4.48421 13.6036C5.91814 15.1429 7.42171 16.0839 7.84849 16.3357C7.96964 16.4073 8.1078 16.4449 8.24849 16.4447C8.38778 16.4447 8.52528 16.4089 8.64849 16.3357C9.07528 16.0839 10.5788 15.1429 12.0128 13.6036C12.8521 12.7036 13.5181 11.7536 13.9949 10.7804C14.5913 9.57145 14.8931 8.31787 14.8931 7.05538C14.8931 6.1768 14.7163 5.32323 14.3681 4.51966ZM8.25028 15.075C7.07349 14.3268 2.89314 11.3643 2.89314 7.05538C2.89314 5.6643 3.44849 4.35716 4.45742 3.37145C5.46992 2.38395 6.81635 1.8393 8.25028 1.8393C9.68421 1.8393 11.0306 2.38395 12.0431 3.37323C13.0521 4.35716 13.6074 5.6643 13.6074 7.05538C13.6074 11.3643 9.42706 14.3268 8.25028 15.075ZM8.25028 4.05359C6.51456 4.05359 5.10742 5.46073 5.10742 7.19645C5.10742 8.93216 6.51456 10.3393 8.25028 10.3393C9.98599 10.3393 11.3931 8.93216 11.3931 7.19645C11.3931 5.46073 9.98599 4.05359 8.25028 4.05359ZM9.66456 8.61073C9.47907 8.79676 9.25862 8.94428 9.0159 9.0448C8.77318 9.14532 8.51299 9.19686 8.25028 9.19645C7.71635 9.19645 7.21456 8.98752 6.83599 8.61073C6.64996 8.42524 6.50245 8.20479 6.40193 7.96207C6.30141 7.71935 6.24987 7.45916 6.25028 7.19645C6.25028 6.66252 6.45921 6.16073 6.83599 5.78216C7.21456 5.40359 7.71635 5.19645 8.25028 5.19645C8.78421 5.19645 9.28599 5.40359 9.66456 5.78216C10.0431 6.16073 10.2503 6.66252 10.2503 7.19645C10.2503 7.73037 10.0431 8.23216 9.66456 8.61073Z" fill="#FF6B00"/>
</g>
<defs>
<clipPath id="clip0_247_9767">
<rect width="16" height="16" fill="white" transform="translate(0.25 0.5)"/>
</clipPath>
</defs>
</svg>
