<svg width="22" height="22" viewBox="0 0 22 22" fill="none" xmlns="http://www.w3.org/2000/svg">
<g clip-path="url(#clip0_189_2108)">
<path d="M11 4C7.13437 4 4 7.13437 4 11C4 14.8656 7.13437 18 11 18C14.8656 18 18 14.8656 18 11C18 7.13437 14.8656 4 11 4ZM11 16.8125C7.79063 16.8125 5.1875 14.2094 5.1875 11C5.1875 7.79063 7.79063 5.1875 11 5.1875C14.2094 5.1875 16.8125 7.79063 16.8125 11C16.8125 14.2094 14.2094 16.8125 11 16.8125Z" fill="#D2D2D2"/>
<path d="M10.2498 8.25C10.2498 8.44891 10.3288 8.63968 10.4694 8.78033C10.6101 8.92098 10.8008 9 10.9998 9C11.1987 9 11.3894 8.92098 11.5301 8.78033C11.6707 8.63968 11.7498 8.44891 11.7498 8.25C11.7498 8.05109 11.6707 7.86032 11.5301 7.71967C11.3894 7.57902 11.1987 7.5 10.9998 7.5C10.8008 7.5 10.6101 7.57902 10.4694 7.71967C10.3288 7.86032 10.2498 8.05109 10.2498 8.25ZM11.3748 10H10.6248C10.556 10 10.4998 10.0563 10.4998 10.125V14.375C10.4998 14.4438 10.556 14.5 10.6248 14.5H11.3748C11.4435 14.5 11.4998 14.4438 11.4998 14.375V10.125C11.4998 10.0563 11.4435 10 11.3748 10Z" fill="#D2D2D2"/>
</g>
<defs>
<clipPath id="clip0_189_2108">
<rect width="14" height="14" fill="white" transform="translate(4 4)"/>
</clipPath>
</defs>
</svg>
