<svg width="22" height="22" viewBox="0 0 22 22" fill="none" xmlns="http://www.w3.org/2000/svg">
<path d="M16.7047 6.73164L15.0406 5.06914C14.8375 4.86602 14.5656 4.75195 14.2781 4.75195C13.9906 4.75195 13.7187 4.86445 13.5156 5.06914L11.7234 6.8582C11.5203 7.06133 11.4062 7.33477 11.4062 7.62227C11.4062 7.91133 11.5187 8.18164 11.7234 8.38633L13.1234 9.78789C12.8045 10.531 12.3463 11.2062 11.7734 11.777C11.2 12.3535 10.5297 12.8082 9.78594 13.1301L8.38594 11.7285C8.18281 11.5254 7.91094 11.4113 7.62344 11.4113C7.48163 11.4108 7.34114 11.4386 7.21021 11.4931C7.07928 11.5475 6.96054 11.6276 6.86094 11.7285L5.06719 13.5176C4.86406 13.7207 4.75 13.9941 4.75 14.2816C4.75 14.5707 4.8625 14.841 5.06719 15.0457L6.72969 16.7082C7.07656 17.0551 7.55469 17.2535 8.04531 17.2535C8.14687 17.2535 8.24531 17.2457 8.34531 17.2285C10.4141 16.8879 12.4672 15.7863 14.125 14.1301C15.7812 12.4707 16.8812 10.4176 17.225 8.34727C17.3234 7.75977 17.1266 7.15508 16.7047 6.73164ZM16.1172 8.16133C15.8125 10.0035 14.8219 11.841 13.3297 13.3332C11.8375 14.8254 10.0016 15.816 8.15937 16.1207C7.92812 16.1598 7.69062 16.0816 7.52187 15.9145L5.88906 14.2816L7.62031 12.5488L9.49219 14.4238L9.50625 14.4379L9.84375 14.3129C10.8671 13.9367 11.7964 13.3424 12.5672 12.5713C13.338 11.8002 13.9319 10.8707 14.3078 9.84727L14.4328 9.50977L12.5453 7.62383L14.2766 5.89102L15.9094 7.52383C16.0781 7.69258 16.1562 7.93008 16.1172 8.16133Z" fill="#D2D2D2"/>
</svg>
