<svg width="22" height="22" viewBox="0 0 22 22" fill="none" xmlns="http://www.w3.org/2000/svg">
<path d="M16.3531 7.51719C16.059 6.83888 15.6348 6.22472 15.1047 5.70938C14.5728 5.18937 13.9458 4.77665 13.2578 4.49375C12.5422 4.19687 11.7828 4.04688 11 4.04688C10.2172 4.04688 9.45781 4.19688 8.74219 4.49219C8.05 4.77813 7.42969 5.1875 6.89531 5.70781C6.3655 6.22345 5.94143 6.83753 5.64687 7.51563C5.34219 8.21875 5.1875 8.96563 5.1875 9.73438C5.1875 10.8375 5.45156 11.9359 5.97031 12.9953C6.3875 13.8469 6.97031 14.6766 7.70469 15.4656C8.95937 16.8125 10.275 17.6359 10.6484 17.8563C10.7544 17.9189 10.8753 17.9518 10.9984 17.9516C11.1203 17.9516 11.2406 17.9203 11.3484 17.8563C11.7219 17.6359 13.0375 16.8125 14.2922 15.4656C15.0266 14.6781 15.6094 13.8469 16.0266 12.9953C16.5484 11.9375 16.8125 10.8406 16.8125 9.73594C16.8125 8.96719 16.6578 8.22031 16.3531 7.51719ZM11 16.7531C9.97031 16.0984 6.3125 13.5063 6.3125 9.73594C6.3125 8.51875 6.79844 7.375 7.68125 6.5125C8.56719 5.64844 9.74531 5.17188 11 5.17188C12.2547 5.17188 13.4328 5.64844 14.3187 6.51406C15.2016 7.375 15.6875 8.51875 15.6875 9.73594C15.6875 13.5063 12.0297 16.0984 11 16.7531ZM11 7.10938C9.48125 7.10938 8.25 8.34063 8.25 9.85938C8.25 11.3781 9.48125 12.6094 11 12.6094C12.5187 12.6094 13.75 11.3781 13.75 9.85938C13.75 8.34063 12.5187 7.10938 11 7.10938ZM12.2375 11.0969C12.0752 11.2597 11.8823 11.3887 11.6699 11.4767C11.4575 11.5646 11.2299 11.6097 11 11.6094C10.5328 11.6094 10.0937 11.4266 9.7625 11.0969C9.59972 10.9346 9.47065 10.7417 9.38269 10.5293C9.29474 10.3169 9.24964 10.0892 9.25 9.85938C9.25 9.39219 9.43281 8.95313 9.7625 8.62188C10.0937 8.29063 10.5328 8.10938 11 8.10938C11.4672 8.10938 11.9062 8.29063 12.2375 8.62188C12.5687 8.95313 12.75 9.39219 12.75 9.85938C12.75 10.3266 12.5687 10.7656 12.2375 11.0969Z" fill="#D2D2D2"/>
</svg>
