<svg width="17" height="17" viewBox="0 0 17 17" fill="none" xmlns="http://www.w3.org/2000/svg">
<path d="M9.42473 8.54604L14.1122 2.95854C14.1908 2.86568 14.1247 2.72461 14.0033 2.72461H12.5783C12.4944 2.72461 12.414 2.76211 12.3587 2.8264L8.49258 7.43532L4.62651 2.8264C4.57294 2.76211 4.49258 2.72461 4.40687 2.72461H2.98187C2.86044 2.72461 2.79437 2.86568 2.87294 2.95854L7.56044 8.54604L2.87294 14.1335C2.85534 14.1542 2.84405 14.1795 2.8404 14.2065C2.83676 14.2334 2.84092 14.2608 2.85239 14.2854C2.86386 14.3101 2.88216 14.3309 2.90511 14.3454C2.92806 14.36 2.9547 14.3676 2.98187 14.3675H4.40687C4.4908 14.3675 4.57115 14.33 4.62651 14.2657L8.49258 9.65675L12.3587 14.2657C12.4122 14.33 12.4926 14.3675 12.5783 14.3675H14.0033C14.1247 14.3675 14.1908 14.2264 14.1122 14.1335L9.42473 8.54604Z" fill="#D2D2D2"/>
</svg>
