<svg width="88" height="23" viewBox="0 0 88 23" fill="none" xmlns="http://www.w3.org/2000/svg">
<path d="M0.165665 18V1.08984H3.70473V15.082H11.1227V18H0.165665ZM12.2252 18V5.37891H15.6471V18H12.2252ZM13.9361 3.70312C13.4205 3.70312 12.983 3.52734 12.6236 3.17578C12.2721 2.81641 12.0963 2.39062 12.0963 1.89844C12.0963 1.39844 12.2721 0.972656 12.6236 0.621094C12.983 0.269531 13.4205 0.09375 13.9361 0.09375C14.4596 0.09375 14.8971 0.269531 15.2486 0.621094C15.608 0.972656 15.7877 1.39844 15.7877 1.89844C15.7877 2.39062 15.608 2.81641 15.2486 3.17578C14.8971 3.52734 14.4596 3.70312 13.9361 3.70312ZM18.1089 18V7.95703H16.3394V5.37891H18.1089V4.33594C18.1089 3.50781 18.2496 2.82422 18.5308 2.28516C18.8199 1.74609 19.2691 1.34766 19.8785 1.08984C20.4957 0.824219 21.3043 0.691406 22.3043 0.691406C22.6246 0.691406 22.941 0.707031 23.2535 0.738281C23.566 0.761719 23.8277 0.792969 24.0386 0.832031V3.09375C23.9214 3.07031 23.7808 3.05469 23.6168 3.04688C23.4605 3.03906 23.2964 3.03516 23.1246 3.03516C22.5464 3.03516 22.1207 3.16016 21.8472 3.41016C21.5816 3.65234 21.4488 4.00781 21.4488 4.47656V5.37891H23.9918V7.95703H21.5308V18H18.1089ZM29.9107 18.2578C28.6216 18.2578 27.5122 17.9961 26.5825 17.4727C25.6607 16.9414 24.9497 16.1836 24.4497 15.1992C23.9497 14.2148 23.6997 13.0508 23.6997 11.707V11.6953C23.6997 10.3594 23.9458 9.19922 24.438 8.21484C24.938 7.23047 25.6411 6.46875 26.5474 5.92969C27.4614 5.38281 28.5357 5.10938 29.77 5.10938C30.9966 5.10938 32.0591 5.375 32.9575 5.90625C33.856 6.42969 34.5474 7.16797 35.0318 8.12109C35.5239 9.06641 35.77 10.1758 35.77 11.4492V12.5039H25.3872V10.3477H34.1411L32.5239 12.3633V11.0391C32.5239 10.2969 32.4107 9.67578 32.1841 9.17578C31.9575 8.67578 31.6411 8.30078 31.2349 8.05078C30.8286 7.80078 30.3599 7.67578 29.8286 7.67578C29.2896 7.67578 28.813 7.80469 28.3989 8.0625C27.9849 8.32031 27.6607 8.70312 27.4263 9.21094C27.1919 9.71094 27.0747 10.3203 27.0747 11.0391V12.375C27.0747 13.0781 27.1919 13.6797 27.4263 14.1797C27.6607 14.6719 27.9927 15.0508 28.4224 15.3164C28.8599 15.5742 29.3794 15.7031 29.981 15.7031C30.4497 15.7031 30.856 15.6328 31.1997 15.4922C31.5513 15.3438 31.8325 15.1602 32.0435 14.9414C32.2622 14.7148 32.4107 14.4883 32.4888 14.2617L32.5122 14.1914H35.6646L35.6294 14.3203C35.5357 14.7734 35.3521 15.2305 35.0786 15.6914C34.813 16.1523 34.4458 16.5781 33.9771 16.9688C33.5161 17.3594 32.9458 17.6719 32.2661 17.9062C31.5943 18.1406 30.8091 18.2578 29.9107 18.2578ZM43.2124 18.3164C41.8686 18.3164 40.6968 18.1211 39.6968 17.7305C38.7046 17.332 37.9233 16.7656 37.353 16.0312C36.7905 15.2891 36.4741 14.4023 36.4038 13.3711L36.3921 13.1836H39.7436L39.7671 13.3125C39.8374 13.7422 40.0288 14.1172 40.3413 14.4375C40.6616 14.75 41.0718 14.9961 41.5718 15.1758C42.0796 15.3555 42.6538 15.4453 43.2944 15.4453C43.9507 15.4453 44.5171 15.3555 44.9936 15.1758C45.4702 14.9961 45.8374 14.7422 46.0952 14.4141C46.353 14.0859 46.4819 13.707 46.4819 13.2773V13.2656C46.4819 12.7031 46.2554 12.2578 45.8022 11.9297C45.3569 11.6016 44.6108 11.332 43.5639 11.1211L41.771 10.7578C40.0913 10.4219 38.8335 9.85156 37.9975 9.04688C37.1616 8.24219 36.7436 7.20312 36.7436 5.92969V5.91797C36.7514 4.88672 37.0288 3.98828 37.5757 3.22266C38.1304 2.44922 38.8921 1.84766 39.8608 1.41797C40.8374 0.988281 41.9468 0.773438 43.1889 0.773438C44.5014 0.773438 45.6304 0.980469 46.5757 1.39453C47.521 1.80078 48.2593 2.375 48.7905 3.11719C49.3296 3.85937 49.6264 4.71875 49.6811 5.69531L49.6929 5.90625H46.353L46.3413 5.76562C46.2788 5.32031 46.1108 4.94141 45.8374 4.62891C45.5639 4.31641 45.2007 4.07422 44.7475 3.90234C44.3022 3.73047 43.7827 3.64453 43.1889 3.64453C42.5952 3.64453 42.0796 3.73438 41.6421 3.91406C41.2124 4.08594 40.8764 4.32422 40.6343 4.62891C40.3999 4.93359 40.2827 5.28906 40.2827 5.69531V5.70703C40.2827 6.24609 40.5093 6.67969 40.9624 7.00781C41.4155 7.33594 42.1304 7.60156 43.1069 7.80469L44.8882 8.16797C46.0757 8.40234 47.0483 8.72656 47.8061 9.14062C48.5639 9.55469 49.1225 10.0781 49.4819 10.7109C49.8413 11.3359 50.021 12.0898 50.021 12.9727V12.9844C50.021 14.0703 49.7475 15.0156 49.2007 15.8203C48.6616 16.6172 47.8843 17.2344 46.8686 17.6719C45.853 18.1016 44.6343 18.3164 43.2124 18.3164ZM53.0336 22.207C52.7289 22.207 52.4282 22.1953 52.1313 22.1719C51.8344 22.1484 51.5844 22.1211 51.3813 22.0898V19.5352C51.5063 19.5586 51.6625 19.5781 51.85 19.5938C52.0375 19.6172 52.2485 19.6289 52.4829 19.6289C53.0141 19.6289 53.436 19.5391 53.7485 19.3594C54.061 19.1797 54.2875 18.8711 54.4282 18.4336L54.5688 18L50.1157 5.37891H53.8657L56.7485 15.9961L56.2446 15.1875H56.9477L56.4321 15.9961L59.3149 5.37891H62.9243L58.6 18.1875C58.2641 19.1953 57.8461 19.9922 57.3461 20.5781C56.8461 21.1719 56.2407 21.5898 55.5297 21.832C54.8266 22.082 53.9946 22.207 53.0336 22.207ZM63.3822 18V5.37891H66.8041V7.42969H66.8979C67.2182 6.71094 67.6986 6.14453 68.3393 5.73047C68.9799 5.31641 69.7689 5.10938 70.7064 5.10938C72.0971 5.10938 73.1674 5.52734 73.9174 6.36328C74.6752 7.19922 75.0541 8.35938 75.0541 9.84375V18H71.6322V10.5703C71.6322 9.73438 71.4408 9.08984 71.058 8.63672C70.6752 8.17578 70.0932 7.94531 69.3119 7.94531C68.8041 7.94531 68.3627 8.0625 67.9877 8.29688C67.6127 8.53125 67.3197 8.85938 67.1088 9.28125C66.9057 9.69531 66.8041 10.1797 66.8041 10.7344V18H63.3822ZM82.2152 18.2578C80.9261 18.2578 79.8168 17.9961 78.8871 17.4727C77.9574 16.9414 77.2425 16.1836 76.7425 15.1992C76.2425 14.2148 75.9925 13.0391 75.9925 11.6719V11.6602C75.9925 10.3086 76.2425 9.14453 76.7425 8.16797C77.2504 7.18359 77.9652 6.42969 78.8871 5.90625C79.8168 5.375 80.9183 5.10938 82.1918 5.10938C83.3246 5.10938 84.3089 5.32031 85.1449 5.74219C85.9808 6.16406 86.6332 6.73828 87.1019 7.46484C87.5785 8.18359 87.8441 9 87.8988 9.91406L87.9105 9.99609H84.723L84.7113 9.90234C84.6019 9.30078 84.3363 8.80078 83.9144 8.40234C83.5004 7.99609 82.9379 7.79297 82.2269 7.79297C81.6644 7.79297 81.1761 7.94922 80.7621 8.26172C80.348 8.56641 80.0277 9.00781 79.8011 9.58594C79.5824 10.1641 79.473 10.8594 79.473 11.6719V11.6953C79.473 12.5156 79.5824 13.2188 79.8011 13.8047C80.0277 14.3828 80.348 14.8242 80.7621 15.1289C81.1761 15.4258 81.6683 15.5742 82.2386 15.5742C82.9339 15.5742 83.4886 15.3867 83.9027 15.0117C84.3246 14.6367 84.5941 14.1289 84.7113 13.4883L84.7347 13.4062L87.9105 13.3945V13.4766C87.8402 14.3906 87.5668 15.2109 87.0902 15.9375C86.6136 16.6562 85.9613 17.2227 85.1332 17.6367C84.3129 18.0508 83.3402 18.2578 82.2152 18.2578Z" fill="#FF8A00"/>
</svg>
