<svg width="20" height="20" viewBox="0 0 20 20" fill="none" xmlns="http://www.w3.org/2000/svg">
<path d="M14.1679 5.60736C13.5925 5.02802 12.9081 4.5683 12.1541 4.25472C11.4002 3.94114 10.5916 3.77989 9.77509 3.78027C6.33861 3.78027 3.56299 6.56367 3.56299 10.0002C3.56299 13.4366 6.33861 16.22 9.77509 16.22C12.6751 16.22 15.0931 14.2374 15.785 11.5551H14.1679C13.8476 12.4644 13.253 13.2519 12.4662 13.8089C11.6794 14.366 10.7391 14.6651 9.77509 14.6651C7.20162 14.6651 5.11018 12.5736 5.11018 10.0002C5.11018 7.42668 7.20162 5.33524 9.77509 5.33524C11.0657 5.33524 12.2164 5.87171 13.0561 6.71917L10.5526 9.22267H15.995V3.78027L14.1679 5.60736Z" fill="black"/>
</svg>
